<?xml version="1.0" encoding="utf-8"?>
<!-- Generator: Adobe Illustrator 17.1.0, SVG Export Plug-In . SVG Version: 6.00 Build 0)  -->
<!DOCTYPE svg PUBLIC "-//W3C//DTD SVG 1.1//EN" "http://www.w3.org/Graphics/SVG/1.1/DTD/svg11.dtd">
<svg version="1.1" id="Layer_1" xmlns="http://www.w3.org/2000/svg" xmlns:xlink="http://www.w3.org/1999/xlink" x="0px" y="0px"
	 viewBox="0 0 800 541" enable-background="new 0 0 800 541" xml:space="preserve">
<g>
	<path fill="#FFFFFF" d="M39.8,491.7c7.4,0,14.5-1.4,21.2-4.2V498c-7.1,2.7-14.7,4.1-22.4,4.1c-16.2,0-35.4-6.7-35.4-39
		c0-32.2,19.2-39,35.4-39c7.7,0,15.3,1.5,22.4,4.2v10.4c-6.7-2.7-13.8-4.2-21.2-4.2c-18,0-25.7,8.6-25.7,28.6
		C14.1,483.2,21.8,491.7,39.8,491.7z"/>
	<path fill="#FFFFFF" d="M143.8,463.1c0,32.2-19.4,39-35.5,39c-16.2,0-35.4-6.8-35.4-39c0-32.2,19.2-39,35.4-39
		C124.5,424.1,143.8,430.9,143.8,463.1z M133,463.1c0-20.3-7.4-29-24.7-29c-17.1,0-24.5,8.8-24.5,29c0,20.3,7.4,29,24.5,29
		C125.5,492.1,133,483.3,133,463.1z"/>
	<path fill="#FFFFFF" d="M193.2,424.2c6.5,0,12.7,0.9,18.8,2.9v-22h10.9v73.3c0,5.6-2.3,23.7-31,23.7c-12.4,0-33.1-5.1-33.1-39.9
		C158.7,430.7,177.4,424.2,193.2,424.2z M191.8,492.1c13.3,0,20.1-4.4,20.1-13.3V438c-5.9-2.4-12.3-3.8-18.8-3.8
		c-16.5,0-23.6,8.5-23.6,28C169.6,489.1,182.3,492.1,191.8,492.1z"/>
	<path fill="#FFFFFF" d="M307.1,464.3c0,2.9-0.3,5.3-0.3,5.3h-55.1c1.4,15.1,8.9,21.6,24.5,21.6c11,0,19.5-1.8,25.9-5.6v11.2
		c-7.3,3.5-16.2,5.3-26.9,5.3c-15.7,0-34.5-6.5-34.5-38c0-8-1.2-40.1,33.1-40.1C308.1,424.1,307.1,461.4,307.1,464.3z M295.9,459.9
		c0-3.6-1.2-25.6-22.1-25.6c-14.8,0-21,7-22.1,25.6H295.9z"/>
	<path fill="#FFFFFF" d="M437.3,455.5v22.7c0,20.9-21.2,23.9-31,23.9c-9.8,0-31.6-3-31.6-24.4c0-25,32.5-24.8,39.5-24.8
		c6.8,0,12.1,0.8,12.1,0.8c0-14.2-8.5-18.8-22.1-18.8c-10.9,0-19.2,2.6-22.1,3.6V428c5.6-2,13.3-3.9,22.7-3.9
		C426,424.1,437.3,434.9,437.3,455.5z M426.4,463.7c0,0-5-0.9-13.5-0.9c-9.1,0-27.4,1.1-27.4,15c0,11.9,11.3,14.2,20.7,14.2
		c9.4,0,20.1-2.3,20.1-13.8C426.4,466.6,426.4,463.7,426.4,463.7z"/>
	<path fill="#FFFFFF" d="M458.8,500.9v-95.8h10.9v95.8H458.8z"/>
	<path fill="#FFFFFF" d="M494.1,500.9v-95.8h10.9v95.8H494.1z"/>
	<path fill="#FFFFFF" d="M607.1,424.2c6.5,0,12.7,0.9,18.8,2.9v-22h10.9v73.3c0,5.6-2.3,23.7-31,23.7c-12.4,0-33.1-5.1-33.1-39.9
		C572.6,430.7,591.4,424.2,607.1,424.2z M605.7,492.1c13.3,0,20.1-4.4,20.1-13.3V438c-5.9-2.4-12.3-3.8-18.8-3.8
		c-16.5,0-23.6,8.5-23.6,28C583.5,489.1,596.2,492.1,605.7,492.1z"/>
	<path fill="#FFFFFF" d="M716.9,455.5v22.7c0,20.9-21.2,23.9-31,23.9c-9.8,0-31.6-3-31.6-24.4c0-25,32.5-24.8,39.5-24.8
		c6.8,0,12.1,0.8,12.1,0.8c0-14.2-8.5-18.8-22.1-18.8c-10.9,0-19.2,2.6-22.1,3.6V428c5.6-2,13.3-3.9,22.7-3.9
		C705.6,424.1,716.9,434.9,716.9,455.5z M706,463.7c0,0-5-0.9-13.5-0.9c-9.1,0-27.4,1.1-27.4,15c0,11.9,11.3,14.2,20.7,14.2
		c9.4,0,20.1-2.3,20.1-13.8C706,466.6,706,463.7,706,463.7z"/>
	<path fill="#FFFFFF" d="M794.4,425.4l-30.9,82.9c-6.7,18-16.6,21.8-23.7,21.8c-3,0-5.6-0.8-7.1-1.4v-10c1.4,0.6,3.6,1.4,6.5,1.4
		c10.3,0,16.5-20.4,16.5-20.4l-27.8-74.3h11.6l21.5,59.7l21.8-59.7H794.4z"/>
</g>
<path fill="#FFFFFF" d="M593.1,156c3.4-23,3.8-46.2,1-70.1l-0.8-7.9h-73.5c-24.2-45-70.1-72.8-121-72.8C347.9,5.2,302,33,277.7,78
	h-73.4l-0.9,7.9c-2.7,24-2.3,47.1,1.1,70.1h-60.8l2,8.7c18.9,95.1,121.4,111.8,122.4,112l28.5,4.2l-21.7-18.5
	c-0.3-0.2-27.7-25.4-44.3-71.4h-17.7c8.8,28,21,48.3,31.3,62.3c-26.7-10.4-65.9-32.3-79.7-81.3h26h17.1h17.2h38.3h17.1h5.9h0.7
	c39.4,0,71.5,31.9,71.5,72.1c0,5.6-1,12-2.1,16.6c-32.5-11.7-58-36.7-70.4-69.7H268c14.2,43,48.2,75.8,91.8,88.1l7.9,1.8l2.4-7.9
	c0.2-0.6,5-14.4,5-28.4c0-49.5-39.6-88.6-88.2-88.6h-8.9c-0.3-4-0.4-7.5-0.4-10.7c0-11.4,1.5-23.3,4.5-34.3h-17.3
	c-2.6,11-3.9,22.9-3.9,34.3c0,3.2,0.1,6.7,0.3,10.7h-0.3h-39.4c-3.2-21-3.9-41-2.1-62h42.5h8.2h18.2h3.4h1.2c48.3,0,97.6,11,97.6,97
	h16.8c0-86,49.3-97,97.5-97h1.5h3.2h18.1h8.5h42.2c1.8,21,1.1,41-2.1,62h-39.3h-0.3c0.2-4,0.3-7.5,0.3-10.7
	c0-11.4-1.3-23.3-3.9-34.3h-17.3c3,11,4.5,22.9,4.5,34.3c0,3.2-0.1,6.7-0.3,10.7h-8.9c-48.7,0-88.3,39-88.3,88.5c0,14,4.7,28.3,5,29
	l2.5,7.4l7.8-1.6c43.6-12.3,77.6-45.2,91.8-88.2h-17.8c-12.4,33-37.9,57.5-70.4,69.3c-1-4.6-2.1-10.1-2.1-15.8
	c0-40.3,32.1-72.5,71.5-72.5h0.6h6h17.1h38.2h17.3H600h33c-13.9,49-53.3,71.5-80,81.7c10.4-14.1,22.8-34.7,31.6-62.7h-17.7
	c-16.5,46-43.9,71-44.3,71.2L500.7,281l28.8-4.8c1-0.1,103.5-16.3,122.4-111.4l2-8.8H593.1z M398.8,135.2
	C378,79.4,324.2,76.4,297.2,76.3c22.2-34.9,60-56,101.6-56c41.5,0,79.4,21.1,101.6,56C473.3,76.4,419.5,79.4,398.8,135.2z"/>
</svg>
